<?xml version="1.0" standalone="no"?>
<!DOCTYPE svg PUBLIC "-//W3C//DTD SVG 20010904//EN"
 "http://www.w3.org/TR/2001/REC-SVG-20010904/DTD/svg10.dtd">
<svg version="1.0" xmlns="http://www.w3.org/2000/svg"
 width="360.000000pt" height="360.000000pt" viewBox="0 0 360.000000 360.000000"
 preserveAspectRatio="xMidYMid meet">
<metadata>
Created by potrace 1.14, written by Peter Selinger 2001-2017
</metadata>
<g transform="translate(0.000000,360.000000) scale(0.100000,-0.100000)"
fill="#000000" stroke="none">
<path d="M1545 2809 c-76 -50 -165 -146 -205 -221 -17 -32 -28 -58 -24 -58 3
0 1 -6 -5 -14 -16 -20 -27 -156 -13 -156 15 0 62 81 68 117 6 29 11 39 18 32
3 -3 0 -24 -5 -49 -17 -76 -9 -86 31 -36 19 25 40 47 47 50 22 9 -7 -52 -48
-98 -47 -53 -49 -62 -9 -41 17 9 30 13 30 10 0 -12 53 42 67 68 14 27 38 126
48 192 9 59 21 123 24 128 2 1 4 12 7 25 2 12 11 34 20 47 28 43 10 45 -51 4z"/>
<path d="M1794 2625 c0 -108 -9 -198 -22 -219 -4 -6 -7 -13 -8 -16 -11 -58
-90 -221 -124 -258 -11 -12 -20 -25 -20 -29 0 -4 -23 -35 -51 -68 -53 -63 -70
-83 -183 -208 -38 -43 -76 -88 -85 -100 -8 -12 -18 -24 -21 -27 -3 -3 -17 -21
-30 -40 -13 -19 -27 -37 -30 -40 -12 -9 -60 -105 -75 -150 -19 -53 -21 -143
-5 -185 6 -16 11 -32 10 -35 -2 -10 44 -100 52 -100 4 0 8 -6 8 -14 0 -8 4
-17 9 -20 5 -3 9 32 9 82 -1 48 2 103 5 122 15 80 19 94 33 129 9 20 17 41 18
46 3 16 59 110 68 113 4 2 8 8 8 12 0 12 115 140 275 305 80 82 115 123 115
134 0 5 6 14 14 20 29 24 90 176 96 236 12 142 -5 281 -48 378 l-18 42 0 -110z"/>
<path d="M1653 2657 c-2 -70 -11 -129 -27 -181 -19 -58 -83 -176 -105 -193 -9
-7 -12 -13 -7 -13 13 0 -270 -280 -283 -280 -6 0 -11 -6 -11 -12 0 -7 -16 -24
-35 -38 -19 -14 -37 -33 -40 -42 -4 -10 -10 -18 -15 -18 -17 0 -79 -97 -98
-154 -26 -76 -20 -147 19 -232 23 -51 28 -55 24 -17 -5 46 31 190 65 259 23
48 58 92 131 165 54 54 103 99 108 99 5 0 11 3 13 8 2 4 27 28 57 52 70 58
131 118 131 129 0 5 7 14 16 22 14 12 64 100 70 124 4 13 14 54 21 85 8 34 8
125 -1 183 -6 44 -22 97 -28 97 -2 0 -4 -19 -5 -43z"/>
<path d="M764 2655 c11 -8 16 -15 12 -15 -9 0 51 -108 71 -128 7 -7 13 -17 13
-21 0 -4 26 -33 58 -65 51 -52 183 -130 209 -125 4 1 15 0 23 -4 53 -20 80 -9
59 24 -5 8 -9 10 -9 4 0 -6 -4 -5 -8 1 -9 14 -82 54 -99 54 -6 0 -15 5 -19 11
-5 9 1 10 22 5 16 -5 37 -9 46 -11 9 -2 26 -8 36 -14 15 -8 23 -7 33 6 11 13
11 15 1 9 -9 -5 -28 8 -57 40 -25 26 -43 49 -41 52 9 8 84 -48 114 -85 l31
-38 -4 32 c-7 60 -50 111 -112 135 -18 7 -33 16 -33 21 0 4 -4 6 -9 3 -5 -3
-28 1 -52 8 -24 8 -73 22 -109 32 -66 18 -122 44 -151 70 -8 8 -22 14 -30 14
-10 -1 -8 -5 5 -15z"/>
<path d="M1972 2598 c39 -122 28 -286 -29 -418 -17 -38 -82 -148 -98 -166 -5
-6 -21 -26 -35 -44 -46 -62 -115 -145 -132 -161 -10 -9 -18 -19 -18 -23 0 -3
-8 -14 -17 -24 -27 -28 -106 -123 -122 -146 -8 -12 -17 -23 -20 -26 -17 -14
-63 -83 -89 -131 -31 -59 -41 -90 -49 -159 -6 -55 -6 -54 -4 -60 1 -3 4 -27 7
-54 17 -176 229 -382 456 -442 56 -14 171 -12 236 5 37 10 115 47 183 87 11 6
16 14 12 17 -3 4 -1 7 5 7 7 0 30 17 51 38 22 21 55 51 74 67 19 17 35 33 36
37 1 4 19 24 39 45 55 57 78 87 104 135 13 23 26 45 29 48 8 7 40 75 43 92 1
7 6 20 11 28 5 8 11 20 12 25 2 6 12 44 23 85 35 130 21 353 -30 468 -11 24
-20 50 -20 56 0 15 -99 180 -111 184 -5 2 -9 8 -9 13 0 16 -135 159 -150 159
-6 0 -10 4 -10 10 0 9 -132 107 -160 118 -8 3 -21 12 -28 19 -7 7 -30 17 -52
23 -25 7 -41 18 -45 31 -10 31 -89 119 -106 119 -4 0 2 -28 13 -62z m177 -130
c13 -10 29 -18 36 -18 7 0 25 -11 41 -25 16 -13 65 -55 109 -92 101 -86 120
-106 181 -193 38 -55 94 -160 94 -177 0 -7 5 -13 11 -13 5 0 8 -3 6 -7 -3 -5
0 -19 6 -33 5 -14 11 -29 13 -35 10 -35 16 -63 18 -85 1 -14 5 -30 8 -35 7
-12 1 -217 -8 -265 -3 -19 -7 -43 -7 -52 -1 -10 -5 -18 -10 -18 -4 0 -7 -6 -6
-12 2 -7 -5 -31 -15 -53 -9 -22 -18 -48 -19 -57 -1 -10 -5 -18 -9 -18 -4 0 -8
-4 -8 -10 0 -5 -13 -30 -30 -56 -16 -26 -27 -51 -24 -56 3 -5 1 -7 -5 -6 -5 2
-20 -11 -34 -29 -43 -58 -114 -130 -179 -179 -35 -27 -65 -52 -68 -55 -3 -4
-23 -15 -45 -26 -84 -42 -201 -56 -285 -33 -148 39 -286 162 -334 298 -32 90
-36 184 -9 214 23 26 129 18 218 -17 39 -15 97 -28 129 -30 78 -5 99 15 121
110 9 37 33 101 54 143 36 68 38 77 27 106 -7 17 -12 37 -10 44 1 6 2 18 3 25
0 7 19 24 41 37 48 30 54 44 35 78 -8 15 -14 23 -15 18 0 -16 -51 66 -66 108
-23 65 -22 86 5 86 17 0 31 18 31 39 0 4 -10 7 -22 7 -25 -1 -25 -8 -16 174 2
48 -1 111 -9 145 -7 33 -12 65 -13 72 0 15 26 7 59 -19z"/>
<path d="M1294 2320 c-27 -11 -55 -70 -33 -70 6 0 8 -4 4 -9 -6 -11 26 -31 49
-31 9 0 25 14 35 31 16 26 17 35 8 50 -7 11 -17 19 -24 19 -6 0 -13 4 -15 9
-1 5 -12 5 -24 1z"/>
<path d="M1092 2251 c-43 -12 -90 -61 -158 -163 -38 -56 -93 -126 -121 -156
-29 -30 -53 -56 -53 -58 0 -2 11 1 24 6 13 5 26 6 29 3 19 -19 245 70 304 120
84 70 154 170 133 191 -10 10 -85 -41 -100 -69 -6 -12 -20 -27 -32 -34 -24
-15 -21 -9 29 60 18 26 33 49 33 52 0 4 -28 -7 -62 -23 -68 -32 -85 -32 -47 1
28 24 99 62 99 53 0 -4 6 -1 13 5 8 6 18 7 22 3 5 -4 5 -2 2 4 -7 12 -80 16
-115 5z"/>
</g>
</svg>
